<?xml version="1.0" encoding="UTF-8" standalone="no"?>
<!DOCTYPE svg PUBLIC "-//W3C//DTD SVG 1.1//EN"
 "http://www.w3.org/Graphics/SVG/1.1/DTD/svg11.dtd">
<!-- Generated by graphviz version 2.42.3 (0)
 -->
<!-- Title: %3 Pages: 1 -->
<svg width="698pt" height="1984pt"
 viewBox="0.00 0.00 698.00 1983.50" xmlns="http://www.w3.org/2000/svg" xmlns:xlink="http://www.w3.org/1999/xlink">
<g id="graph0" class="graph" transform="scale(1 1) rotate(0) translate(36 1947.5)">
<title>%3</title>
<polygon fill="white" stroke="transparent" points="-36,36 -36,-1947.5 662,-1947.5 662,36 -36,36"/>
<g id="clust1" class="cluster">
<title>cluster_artifact</title>
</g>
<g id="clust2" class="cluster">
<title>cluster_land</title>
</g>
<g id="clust3" class="cluster">
<title>cluster_enchantment</title>
</g>
<g id="clust4" class="cluster">
<title>cluster_planeswalker</title>
</g>
<g id="clust5" class="cluster">
<title>cluster_sorcery</title>
</g>
<g id="clust6" class="cluster">
<title>cluster_instant</title>
</g>
<g id="clust7" class="cluster">
<title>cluster_creature</title>
</g>
<!-- Format -->
<g id="node1" class="node">
<title>Format</title>
<polygon fill="none" stroke="black" points="513,-1829 513,-1850 626,-1850 626,-1829 513,-1829"/>
<text text-anchor="start" x="537.5" y="-1836.8" font-family="Times,serif" font-style="italic" font-size="14.00">FORMAT</text>
<polygon fill="none" stroke="black" points="513,-1808 513,-1829 626,-1829 626,-1808 513,-1808"/>
<text text-anchor="start" x="522.5" y="-1815.8" font-family="Times,serif" text-decoration="underline" font-size="14.00">format_name</text>
<polygon fill="none" stroke="black" points="513,-1787 513,-1808 626,-1808 626,-1787 513,-1787"/>
<text text-anchor="start" x="535.5" y="-1793.8" font-family="Times,serif" font-size="14.00">deck_size</text>
<polygon fill="none" stroke="black" points="513,-1766 513,-1787 626,-1787 626,-1766 513,-1766"/>
<text text-anchor="start" x="524" y="-1772.8" font-family="Times,serif" font-size="14.00">num_players</text>
<polygon fill="none" stroke="black" points="513,-1745 513,-1766 626,-1766 626,-1745 513,-1745"/>
<text text-anchor="start" x="516" y="-1751.8" font-family="Times,serif" font-size="14.00">copies_allowed</text>
</g>
<!-- Set -->
<g id="node2" class="node">
<title>Set</title>
<polygon fill="none" stroke="black" points="532,-1132 532,-1153 606,-1153 606,-1132 532,-1132"/>
<text text-anchor="start" x="554" y="-1139.8" font-family="Times,serif" font-style="italic" font-size="14.00">SET</text>
<polygon fill="none" stroke="black" points="532,-1111 532,-1132 606,-1132 606,-1111 532,-1111"/>
<text text-anchor="start" x="538.5" y="-1118.8" font-family="Times,serif" text-decoration="underline" font-size="14.00" fill="red">set_num</text>
<polygon fill="none" stroke="black" points="532,-1090 532,-1111 606,-1111 606,-1090 532,-1090"/>
<text text-anchor="start" x="535" y="-1097.8" font-family="Times,serif" text-decoration="underline" font-size="14.00">set_name</text>
<polygon fill="none" stroke="black" points="532,-1069 532,-1090 606,-1090 606,-1069 532,-1069"/>
<text text-anchor="start" x="553" y="-1075.8" font-family="Times,serif" font-size="14.00">year</text>
</g>
<!-- Card -->
<g id="node3" class="node">
<title>Card</title>
<polygon fill="none" stroke="black" points="512,-933 512,-954 626,-954 626,-933 512,-933"/>
<text text-anchor="start" x="547.5" y="-940.8" font-family="Times,serif" font-style="italic" font-size="14.00">CARD</text>
<polygon fill="none" stroke="black" points="512,-912 512,-933 626,-933 626,-912 512,-912"/>
<text text-anchor="start" x="530" y="-919.8" font-family="Times,serif" text-decoration="underline" font-size="14.00">card_name</text>
<polygon fill="none" stroke="black" points="512,-891 512,-912 626,-912 626,-891 512,-891"/>
<text text-anchor="start" x="532.5" y="-897.8" font-family="Times,serif" font-size="14.00">supertype</text>
<polygon fill="none" stroke="black" points="512,-870 512,-891 626,-891 626,-870 512,-870"/>
<text text-anchor="start" x="520" y="-876.8" font-family="Times,serif" font-size="14.00">color_identity</text>
<polygon fill="none" stroke="black" points="512,-849 512,-870 626,-870 626,-849 512,-849"/>
<text text-anchor="start" x="537" y="-855.8" font-family="Times,serif" font-size="14.00">colorless</text>
<polygon fill="none" stroke="black" points="512,-828 512,-849 626,-849 626,-828 512,-828"/>
<text text-anchor="start" x="524" y="-834.8" font-family="Times,serif" font-size="14.00">color_letters</text>
<polygon fill="none" stroke="black" points="512,-807 512,-828 626,-828 626,-807 512,-807"/>
<text text-anchor="start" x="554.5" y="-813.8" font-family="Times,serif" font-size="14.00">text</text>
<polygon fill="none" stroke="black" points="512,-786 512,-807 626,-807 626,-786 512,-786"/>
<text text-anchor="start" x="515" y="-792.8" font-family="Times,serif" font-size="14.00">converted_cost</text>
</g>
<!-- Artifact -->
<g id="node4" class="node">
<title>Artifact</title>
<polygon fill="none" stroke="black" points="78,-873 78,-894 162,-894 162,-873 78,-873"/>
<text text-anchor="start" x="83.5" y="-880.8" font-family="Times,serif" font-style="italic" font-size="14.00">ARTIFACT</text>
<polygon fill="none" stroke="black" points="78,-852 78,-873 162,-873 162,-852 78,-852"/>
<text text-anchor="start" x="81" y="-859.8" font-family="Times,serif" text-decoration="underline" font-size="14.00">card_name</text>
</g>
<!-- Artifact&#45;&gt;Card -->
<g id="edge9" class="edge">
<title>Artifact:1&#45;&gt;Card:1</title>
<path fill="none" stroke="black" d="M163,-862C316.93,-862 352.94,-920.29 501.57,-922.91"/>
<polygon fill="black" stroke="black" points="501.97,-926.41 512,-923 502.03,-919.41 501.97,-926.41"/>
</g>
<!-- Artifact_subtype -->
<g id="node5" class="node">
<title>Artifact_subtype</title>
<polygon fill="none" stroke="black" points="42,-993 42,-1014 198,-1014 198,-993 42,-993"/>
<text text-anchor="start" x="45" y="-1000.8" font-family="Times,serif" font-style="italic" font-size="14.00">ARTIFACT_SUBTYPE</text>
<polygon fill="none" stroke="black" points="42,-972 42,-993 198,-993 198,-972 42,-972"/>
<text text-anchor="start" x="81" y="-979.8" font-family="Times,serif" text-decoration="underline" font-size="14.00">card_name</text>
<polygon fill="none" stroke="black" points="42,-951 42,-972 198,-972 198,-951 42,-951"/>
<text text-anchor="start" x="86" y="-958.8" font-family="Times,serif" text-decoration="underline" font-size="14.00">set_name</text>
<polygon fill="none" stroke="black" points="42,-930 42,-951 198,-951 198,-930 42,-930"/>
<text text-anchor="start" x="91" y="-936.8" font-family="Times,serif" font-size="14.00">subtype</text>
</g>
<!-- Artifact_subtype&#45;&gt;Set -->
<g id="edge11" class="edge">
<title>Artifact_subtype:2&#45;&gt;Set:1</title>
<path fill="none" stroke="red" d="M199,-961C359.47,-961 366.76,-1115.16 520.65,-1121.78"/>
<polygon fill="red" stroke="red" points="520.93,-1125.29 531,-1122 521.08,-1118.29 520.93,-1125.29"/>
</g>
<!-- Artifact_subtype&#45;&gt;Card -->
<g id="edge10" class="edge">
<title>Artifact_subtype:1&#45;&gt;Card:1</title>
<path fill="none" stroke="black" d="M199,-983C337.19,-983 368.84,-925.89 501.82,-923.11"/>
<polygon fill="black" stroke="black" points="502.04,-926.6 512,-923 501.96,-919.6 502.04,-926.6"/>
</g>
<!-- Land -->
<g id="node6" class="node">
<title>Land</title>
<polygon fill="none" stroke="black" points="78,-674 78,-695 162,-695 162,-674 78,-674"/>
<text text-anchor="start" x="98.5" y="-681.8" font-family="Times,serif" font-style="italic" font-size="14.00">LAND</text>
<polygon fill="none" stroke="black" points="78,-653 78,-674 162,-674 162,-653 78,-653"/>
<text text-anchor="start" x="81" y="-660.8" font-family="Times,serif" text-decoration="underline" font-size="14.00">card_name</text>
<polygon fill="none" stroke="black" points="78,-632 78,-653 162,-653 162,-632 78,-632"/>
<text text-anchor="start" x="85" y="-638.8" font-family="Times,serif" font-size="14.00">non_basic</text>
</g>
<!-- Land&#45;&gt;Card -->
<g id="edge15" class="edge">
<title>Land:1&#45;&gt;Card:1</title>
<path fill="none" stroke="black" d="M163,-663C352.93,-663 319.87,-913.69 501.74,-922.75"/>
<polygon fill="black" stroke="black" points="501.92,-926.25 512,-923 502.09,-919.26 501.92,-926.25"/>
</g>
<!-- Land_subtype -->
<g id="node7" class="node">
<title>Land_subtype</title>
<polygon fill="none" stroke="black" points="57,-795 57,-816 183,-816 183,-795 57,-795"/>
<text text-anchor="start" x="60" y="-802.8" font-family="Times,serif" font-style="italic" font-size="14.00">LAND_SUBTYPE</text>
<polygon fill="none" stroke="black" points="57,-774 57,-795 183,-795 183,-774 57,-774"/>
<text text-anchor="start" x="81" y="-781.8" font-family="Times,serif" text-decoration="underline" font-size="14.00">card_name</text>
<polygon fill="none" stroke="black" points="57,-753 57,-774 183,-774 183,-753 57,-753"/>
<text text-anchor="start" x="86" y="-760.8" font-family="Times,serif" text-decoration="underline" font-size="14.00">set_name</text>
<polygon fill="none" stroke="black" points="57,-732 57,-753 183,-753 183,-732 57,-732"/>
<text text-anchor="start" x="91" y="-738.8" font-family="Times,serif" font-size="14.00">subtype</text>
</g>
<!-- Land_subtype&#45;&gt;Set -->
<g id="edge17" class="edge">
<title>Land_subtype:2&#45;&gt;Set:1</title>
<path fill="none" stroke="red" d="M184,-763C402.44,-763 312.04,-1110.87 520.83,-1121.74"/>
<polygon fill="red" stroke="red" points="520.91,-1125.24 531,-1122 521.09,-1118.25 520.91,-1125.24"/>
</g>
<!-- Land_subtype&#45;&gt;Card -->
<g id="edge16" class="edge">
<title>Land_subtype:1&#45;&gt;Card:1</title>
<path fill="none" stroke="black" d="M184,-785C338.6,-785 353.25,-916.87 501.56,-922.79"/>
<polygon fill="black" stroke="black" points="501.93,-926.3 512,-923 502.07,-919.3 501.93,-926.3"/>
</g>
<!-- Enchantment -->
<g id="node8" class="node">
<title>Enchantment</title>
<polygon fill="none" stroke="black" points="56,-455 56,-476 184,-476 184,-455 56,-455"/>
<text text-anchor="start" x="59" y="-462.8" font-family="Times,serif" font-style="italic" font-size="14.00">ENCHANTMENT</text>
<polygon fill="none" stroke="black" points="56,-434 56,-455 184,-455 184,-434 56,-434"/>
<text text-anchor="start" x="81" y="-441.8" font-family="Times,serif" text-decoration="underline" font-size="14.00">card_name</text>
</g>
<!-- Enchantment&#45;&gt;Card -->
<g id="edge18" class="edge">
<title>Enchantment:1&#45;&gt;Card:1</title>
<path fill="none" stroke="black" d="M185,-444C439.24,-444 259.31,-909.99 501.68,-922.73"/>
<polygon fill="black" stroke="black" points="501.91,-926.24 512,-923 502.09,-919.24 501.91,-926.24"/>
</g>
<!-- Enchantment_subtype -->
<g id="node9" class="node">
<title>Enchantment_subtype</title>
<polygon fill="none" stroke="black" points="18,-575 18,-596 223,-596 223,-575 18,-575"/>
<text text-anchor="start" x="21" y="-582.8" font-family="Times,serif" font-style="italic" font-size="14.00">ENCHANTMENT_SUBTYPE</text>
<polygon fill="none" stroke="black" points="18,-554 18,-575 223,-575 223,-554 18,-554"/>
<text text-anchor="start" x="81.5" y="-561.8" font-family="Times,serif" text-decoration="underline" font-size="14.00">card_name</text>
<polygon fill="none" stroke="black" points="18,-533 18,-554 223,-554 223,-533 18,-533"/>
<text text-anchor="start" x="86.5" y="-540.8" font-family="Times,serif" text-decoration="underline" font-size="14.00">set_name</text>
<polygon fill="none" stroke="black" points="18,-512 18,-533 223,-533 223,-512 18,-512"/>
<text text-anchor="start" x="91.5" y="-518.8" font-family="Times,serif" font-size="14.00">subtype</text>
</g>
<!-- Enchantment_subtype&#45;&gt;Set -->
<g id="edge20" class="edge">
<title>Enchantment_subtype:2&#45;&gt;Set:1</title>
<path fill="none" stroke="red" d="M224,-543C511.86,-543 246.11,-1108.51 520.99,-1121.76"/>
<polygon fill="red" stroke="red" points="520.92,-1125.26 531,-1122 521.09,-1118.26 520.92,-1125.26"/>
</g>
<!-- Enchantment_subtype&#45;&gt;Card -->
<g id="edge19" class="edge">
<title>Enchantment_subtype:1&#45;&gt;Card:1</title>
<path fill="none" stroke="black" d="M224,-565C424.72,-565 311.81,-910.87 501.81,-922.69"/>
<polygon fill="black" stroke="black" points="501.9,-926.19 512,-923 502.11,-919.2 501.9,-926.19"/>
</g>
<!-- Planeswalker -->
<g id="node10" class="node">
<title>Planeswalker</title>
<polygon fill="none" stroke="black" points="55,-256 55,-277 186,-277 186,-256 55,-256"/>
<text text-anchor="start" x="58" y="-263.8" font-family="Times,serif" font-style="italic" font-size="14.00">PLANESWALKER</text>
<polygon fill="none" stroke="black" points="55,-235 55,-256 186,-256 186,-235 55,-235"/>
<text text-anchor="start" x="81.5" y="-242.8" font-family="Times,serif" text-decoration="underline" font-size="14.00">card_name</text>
<polygon fill="none" stroke="black" points="55,-214 55,-235 186,-235 186,-214 55,-214"/>
<text text-anchor="start" x="96" y="-220.8" font-family="Times,serif" font-size="14.00">loyalty</text>
</g>
<!-- Planeswalker&#45;&gt;Card -->
<g id="edge21" class="edge">
<title>Planeswalker:1&#45;&gt;Card:1</title>
<path fill="none" stroke="black" d="M187,-245C517.74,-245 184.81,-909.17 501.93,-922.79"/>
<polygon fill="black" stroke="black" points="501.93,-926.29 512,-923 502.08,-919.29 501.93,-926.29"/>
</g>
<!-- Planeswalker_subtype -->
<g id="node11" class="node">
<title>Planeswalker_subtype</title>
<polygon fill="none" stroke="black" points="16,-377 16,-398 224,-398 224,-377 16,-377"/>
<text text-anchor="start" x="19" y="-384.8" font-family="Times,serif" font-style="italic" font-size="14.00">PLANESWALKER_SUBTYPE</text>
<polygon fill="none" stroke="black" points="16,-356 16,-377 224,-377 224,-356 16,-356"/>
<text text-anchor="start" x="81" y="-363.8" font-family="Times,serif" text-decoration="underline" font-size="14.00">card_name</text>
<polygon fill="none" stroke="black" points="16,-335 16,-356 224,-356 224,-335 16,-335"/>
<text text-anchor="start" x="86" y="-342.8" font-family="Times,serif" text-decoration="underline" font-size="14.00">set_name</text>
<polygon fill="none" stroke="black" points="16,-314 16,-335 224,-335 224,-314 16,-314"/>
<text text-anchor="start" x="91" y="-320.8" font-family="Times,serif" font-size="14.00">subtype</text>
</g>
<!-- Planeswalker_subtype&#45;&gt;Set -->
<g id="edge23" class="edge">
<title>Planeswalker_subtype:2&#45;&gt;Set:1</title>
<path fill="none" stroke="red" d="M225,-345C592.71,-345 167.88,-1107.65 520.88,-1121.8"/>
<polygon fill="red" stroke="red" points="520.93,-1125.3 531,-1122 521.07,-1118.3 520.93,-1125.3"/>
</g>
<!-- Planeswalker_subtype&#45;&gt;Card -->
<g id="edge22" class="edge">
<title>Planeswalker_subtype:1&#45;&gt;Card:1</title>
<path fill="none" stroke="black" d="M225,-367C499.56,-367 240.66,-908.97 501.67,-922.73"/>
<polygon fill="black" stroke="black" points="501.91,-926.24 512,-923 502.09,-919.24 501.91,-926.24"/>
</g>
<!-- Sorcery -->
<g id="node12" class="node">
<title>Sorcery</title>
<polygon fill="none" stroke="black" points="78,-37 78,-58 162,-58 162,-37 78,-37"/>
<text text-anchor="start" x="84" y="-44.8" font-family="Times,serif" font-style="italic" font-size="14.00">SORCERY</text>
<polygon fill="none" stroke="black" points="78,-16 78,-37 162,-37 162,-16 78,-16"/>
<text text-anchor="start" x="81" y="-23.8" font-family="Times,serif" text-decoration="underline" font-size="14.00">card_name</text>
</g>
<!-- Sorcery&#45;&gt;Card -->
<g id="edge24" class="edge">
<title>Sorcery:1&#45;&gt;Card:1</title>
<path fill="none" stroke="black" d="M163,-26C587.33,-26 92.32,-908.6 501.84,-922.83"/>
<polygon fill="black" stroke="black" points="501.94,-926.33 512,-923 502.06,-919.33 501.94,-926.33"/>
</g>
<!-- Sorcery_subtype -->
<g id="node13" class="node">
<title>Sorcery_subtype</title>
<polygon fill="none" stroke="black" points="43,-157 43,-178 198,-178 198,-157 43,-157"/>
<text text-anchor="start" x="46" y="-164.8" font-family="Times,serif" font-style="italic" font-size="14.00">SORCERY_SUBTYPE</text>
<polygon fill="none" stroke="black" points="43,-136 43,-157 198,-157 198,-136 43,-136"/>
<text text-anchor="start" x="81.5" y="-143.8" font-family="Times,serif" text-decoration="underline" font-size="14.00">card_name</text>
<polygon fill="none" stroke="black" points="43,-115 43,-136 198,-136 198,-115 43,-115"/>
<text text-anchor="start" x="86.5" y="-122.8" font-family="Times,serif" text-decoration="underline" font-size="14.00">set_name</text>
<polygon fill="none" stroke="black" points="43,-94 43,-115 198,-115 198,-94 43,-94"/>
<text text-anchor="start" x="91.5" y="-100.8" font-family="Times,serif" font-size="14.00">subtype</text>
</g>
<!-- Sorcery_subtype&#45;&gt;Set -->
<g id="edge26" class="edge">
<title>Sorcery_subtype:2&#45;&gt;Set:1</title>
<path fill="none" stroke="red" d="M199,-125C662.61,-125 72.73,-1107.45 520.91,-1121.84"/>
<polygon fill="red" stroke="red" points="520.95,-1125.34 531,-1122 521.06,-1118.34 520.95,-1125.34"/>
</g>
<!-- Sorcery_subtype&#45;&gt;Card -->
<g id="edge25" class="edge">
<title>Sorcery_subtype:1&#45;&gt;Card:1</title>
<path fill="none" stroke="black" d="M199,-147C567.44,-147 148.04,-908.67 501.86,-922.8"/>
<polygon fill="black" stroke="black" points="501.93,-926.3 512,-923 502.07,-919.3 501.93,-926.3"/>
</g>
<!-- Instant -->
<g id="node14" class="node">
<title>Instant</title>
<polygon fill="none" stroke="black" points="78,-1311 78,-1332 162,-1332 162,-1311 78,-1311"/>
<text text-anchor="start" x="86.5" y="-1318.8" font-family="Times,serif" font-style="italic" font-size="14.00">INSTANT</text>
<polygon fill="none" stroke="black" points="78,-1290 78,-1311 162,-1311 162,-1290 78,-1290"/>
<text text-anchor="start" x="81" y="-1297.8" font-family="Times,serif" text-decoration="underline" font-size="14.00">card_name</text>
</g>
<!-- Instant&#45;&gt;Card -->
<g id="edge27" class="edge">
<title>Instant:1&#45;&gt;Card:1</title>
<path fill="none" stroke="black" d="M163,-1300C387.87,-1300 286.85,-934.33 501.86,-923.26"/>
<polygon fill="black" stroke="black" points="502.09,-926.75 512,-923 501.91,-919.75 502.09,-926.75"/>
</g>
<!-- Instant_subtype -->
<g id="node15" class="node">
<title>Instant_subtype</title>
<polygon fill="none" stroke="black" points="45,-1431 45,-1452 195,-1452 195,-1431 45,-1431"/>
<text text-anchor="start" x="48" y="-1438.8" font-family="Times,serif" font-style="italic" font-size="14.00">INSTANT_SUBTYPE</text>
<polygon fill="none" stroke="black" points="45,-1410 45,-1431 195,-1431 195,-1410 45,-1410"/>
<text text-anchor="start" x="81" y="-1417.8" font-family="Times,serif" text-decoration="underline" font-size="14.00">card_name</text>
<polygon fill="none" stroke="black" points="45,-1389 45,-1410 195,-1410 195,-1389 45,-1389"/>
<text text-anchor="start" x="86" y="-1396.8" font-family="Times,serif" text-decoration="underline" font-size="14.00">set_name</text>
<polygon fill="none" stroke="black" points="45,-1368 45,-1389 195,-1389 195,-1368 45,-1368"/>
<text text-anchor="start" x="91" y="-1374.8" font-family="Times,serif" font-size="14.00">subtype</text>
</g>
<!-- Instant_subtype&#45;&gt;Set -->
<g id="edge29" class="edge">
<title>Instant_subtype:2&#45;&gt;Set:1</title>
<path fill="none" stroke="red" d="M196,-1399C385.7,-1399 339.58,-1131.92 520.77,-1122.27"/>
<polygon fill="red" stroke="red" points="521.1,-1125.76 531,-1122 520.91,-1118.76 521.1,-1125.76"/>
</g>
<!-- Instant_subtype&#45;&gt;Card -->
<g id="edge28" class="edge">
<title>Instant_subtype:1&#45;&gt;Card:1</title>
<path fill="none" stroke="black" d="M196,-1421C454.68,-1421 255.28,-936.04 501.88,-923.26"/>
<polygon fill="black" stroke="black" points="502.09,-926.75 512,-923 501.91,-919.76 502.09,-926.75"/>
</g>
<!-- Creature -->
<g id="node16" class="node">
<title>Creature</title>
<polygon fill="none" stroke="black" points="76,-1113 76,-1134 165,-1134 165,-1113 76,-1113"/>
<text text-anchor="start" x="79" y="-1120.8" font-family="Times,serif" font-style="italic" font-size="14.00">CREATURE</text>
<polygon fill="none" stroke="black" points="76,-1092 76,-1113 165,-1113 165,-1092 76,-1092"/>
<text text-anchor="start" x="81.5" y="-1099.8" font-family="Times,serif" text-decoration="underline" font-size="14.00">card_name</text>
<polygon fill="none" stroke="black" points="76,-1071 76,-1092 165,-1092 165,-1071 76,-1071"/>
<text text-anchor="start" x="98" y="-1077.8" font-family="Times,serif" font-size="14.00">power</text>
<polygon fill="none" stroke="black" points="76,-1050 76,-1071 165,-1071 165,-1050 76,-1050"/>
<text text-anchor="start" x="83.5" y="-1056.8" font-family="Times,serif" font-size="14.00">toughness</text>
</g>
<!-- Creature&#45;&gt;Card -->
<g id="edge12" class="edge">
<title>Creature:1&#45;&gt;Card:1</title>
<path fill="none" stroke="black" d="M166,-1103C335.79,-1103 338.61,-930.31 501.55,-923.22"/>
<polygon fill="black" stroke="black" points="502.08,-926.71 512,-923 501.93,-919.72 502.08,-926.71"/>
</g>
<!-- Creature_subtype -->
<g id="node17" class="node">
<title>Creature_subtype</title>
<polygon fill="none" stroke="black" points="37,-1233 37,-1254 203,-1254 203,-1233 37,-1233"/>
<text text-anchor="start" x="40" y="-1240.8" font-family="Times,serif" font-style="italic" font-size="14.00">CREATURE_SUBTYPE</text>
<polygon fill="none" stroke="black" points="37,-1212 37,-1233 203,-1233 203,-1212 37,-1212"/>
<text text-anchor="start" x="81" y="-1219.8" font-family="Times,serif" text-decoration="underline" font-size="14.00">card_name</text>
<polygon fill="none" stroke="black" points="37,-1191 37,-1212 203,-1212 203,-1191 37,-1191"/>
<text text-anchor="start" x="86" y="-1198.8" font-family="Times,serif" text-decoration="underline" font-size="14.00">set_name</text>
<polygon fill="none" stroke="black" points="37,-1170 37,-1191 203,-1191 203,-1170 37,-1170"/>
<text text-anchor="start" x="91" y="-1176.8" font-family="Times,serif" font-size="14.00">subtype</text>
</g>
<!-- Creature_subtype&#45;&gt;Set -->
<g id="edge14" class="edge">
<title>Creature_subtype:2&#45;&gt;Set:1</title>
<path fill="none" stroke="red" d="M204,-1201C350.01,-1201 380.11,-1125.66 520.68,-1122.13"/>
<polygon fill="red" stroke="red" points="521.04,-1125.62 531,-1122 520.96,-1118.62 521.04,-1125.62"/>
</g>
<!-- Creature_subtype&#45;&gt;Card -->
<g id="edge13" class="edge">
<title>Creature_subtype:1&#45;&gt;Card:1</title>
<path fill="none" stroke="black" d="M204,-1223C391.64,-1223 323.5,-933.74 501.9,-923.29"/>
<polygon fill="black" stroke="black" points="502.1,-926.79 512,-923 501.9,-919.79 502.1,-926.79"/>
</g>
<!-- Contains -->
<g id="node18" class="node">
<title>Contains</title>
<polygon fill="none" stroke="black" points="78,-1671 78,-1692 163,-1692 163,-1671 78,-1671"/>
<text text-anchor="start" x="81" y="-1678.8" font-family="Times,serif" font-style="italic" font-size="14.00">CONTAINS</text>
<polygon fill="none" stroke="black" points="78,-1650 78,-1671 163,-1671 163,-1650 78,-1650"/>
<text text-anchor="start" x="86.5" y="-1657.8" font-family="Times,serif" text-decoration="underline" font-size="14.00">set_name</text>
<polygon fill="none" stroke="black" points="78,-1629 78,-1650 163,-1650 163,-1629 78,-1629"/>
<text text-anchor="start" x="81.5" y="-1636.8" font-family="Times,serif" text-decoration="underline" font-size="14.00">card_name</text>
<polygon fill="none" stroke="black" points="78,-1608 78,-1629 163,-1629 163,-1608 78,-1608"/>
<text text-anchor="start" x="100" y="-1614.8" font-family="Times,serif" font-size="14.00">rarity</text>
</g>
<!-- Contains&#45;&gt;Set -->
<g id="edge1" class="edge">
<title>Contains:1&#45;&gt;Set:1</title>
<path fill="none" stroke="red" d="M164,-1661C450.28,-1661 246.3,-1135.08 520.61,-1122.24"/>
<polygon fill="red" stroke="red" points="521.08,-1125.73 531,-1122 520.92,-1118.73 521.08,-1125.73"/>
</g>
<!-- Contains&#45;&gt;Card -->
<g id="edge2" class="edge">
<title>Contains:2&#45;&gt;Card:1</title>
<path fill="none" stroke="black" d="M164,-1639C514.36,-1639 165.14,-936.92 501.84,-923.2"/>
<polygon fill="black" stroke="black" points="502.07,-926.7 512,-923 501.93,-919.7 502.07,-926.7"/>
</g>
<!-- Is_allowed -->
<g id="node19" class="node">
<title>Is_allowed</title>
<polygon fill="none" stroke="black" points="69,-1890 69,-1911 172,-1911 172,-1890 69,-1890"/>
<text text-anchor="start" x="72" y="-1897.8" font-family="Times,serif" font-style="italic" font-size="14.00">IS_ALLOWED</text>
<polygon fill="none" stroke="black" points="69,-1869 69,-1890 172,-1890 172,-1869 69,-1869"/>
<text text-anchor="start" x="86.5" y="-1876.8" font-family="Times,serif" text-decoration="underline" font-size="14.00">set_name</text>
<polygon fill="none" stroke="black" points="69,-1848 69,-1869 172,-1869 172,-1848 69,-1848"/>
<text text-anchor="start" x="73.5" y="-1855.8" font-family="Times,serif" text-decoration="underline" font-size="14.00">format_name</text>
</g>
<!-- Is_allowed&#45;&gt;Format -->
<g id="edge4" class="edge">
<title>Is_allowed:2&#45;&gt;Format:1</title>
<path fill="none" stroke="black" d="M173,-1858C321.25,-1858 358.68,-1820.73 501.95,-1819.06"/>
<polygon fill="black" stroke="black" points="502.02,-1822.56 512,-1819 501.98,-1815.56 502.02,-1822.56"/>
</g>
<!-- Is_allowed&#45;&gt;Set -->
<g id="edge3" class="edge">
<title>Is_allowed:1&#45;&gt;Set:1</title>
<path fill="none" stroke="red" d="M173,-1879C541.72,-1879 165.93,-1135.98 520.84,-1122.19"/>
<polygon fill="red" stroke="red" points="521.07,-1125.69 531,-1122 520.93,-1118.69 521.07,-1125.69"/>
</g>
<!-- Double_card -->
<g id="node20" class="node">
<title>Double_card</title>
<polygon fill="none" stroke="black" points="60,-1551 60,-1572 180,-1572 180,-1551 60,-1551"/>
<text text-anchor="start" x="63" y="-1558.8" font-family="Times,serif" font-style="italic" font-size="14.00">DOUBLE_CARD</text>
<polygon fill="none" stroke="black" points="60,-1530 60,-1551 180,-1551 180,-1530 60,-1530"/>
<text text-anchor="start" x="97.5" y="-1537.8" font-family="Times,serif" text-decoration="underline" font-size="14.00">side_a</text>
<polygon fill="none" stroke="black" points="60,-1509 60,-1530 180,-1530 180,-1509 60,-1509"/>
<text text-anchor="start" x="97" y="-1516.8" font-family="Times,serif" text-decoration="underline" font-size="14.00">side_b</text>
<polygon fill="none" stroke="black" points="60,-1488 60,-1509 180,-1509 180,-1488 60,-1488"/>
<text text-anchor="start" x="86" y="-1495.8" font-family="Times,serif" text-decoration="underline" font-size="14.00">set_name</text>
</g>
<!-- Double_card&#45;&gt;Set -->
<g id="edge30" class="edge">
<title>Double_card:3&#45;&gt;Set:1</title>
<path fill="none" stroke="red" d="M181,-1498C405.85,-1498 305.84,-1133.3 520.86,-1122.26"/>
<polygon fill="red" stroke="red" points="521.09,-1125.75 531,-1122 520.91,-1118.75 521.09,-1125.75"/>
</g>
<!-- Double_card&#45;&gt;Card -->
<g id="edge7" class="edge">
<title>Double_card:1&#45;&gt;Card:1</title>
<path fill="none" stroke="black" d="M181,-1541C489.08,-1541 206.9,-936.8 501.73,-923.23"/>
<polygon fill="black" stroke="black" points="502.08,-926.73 512,-923 501.92,-919.73 502.08,-926.73"/>
</g>
<!-- Double_card&#45;&gt;Card -->
<g id="edge8" class="edge">
<title>Double_card:2&#45;&gt;Card:1</title>
<path fill="none" stroke="black" d="M181,-1519C480.45,-1519 215.37,-936.89 501.58,-923.24"/>
<polygon fill="black" stroke="black" points="502.08,-926.73 512,-923 501.92,-919.73 502.08,-926.73"/>
</g>
<!-- Limitation -->
<g id="node21" class="node">
<title>Limitation</title>
<polygon fill="none" stroke="black" points="63,-1791 63,-1812 177,-1812 177,-1791 63,-1791"/>
<text text-anchor="start" x="75.5" y="-1798.8" font-family="Times,serif" font-style="italic" font-size="14.00">LIMITATION</text>
<polygon fill="none" stroke="black" points="63,-1770 63,-1791 177,-1791 177,-1770 63,-1770"/>
<text text-anchor="start" x="73" y="-1777.8" font-family="Times,serif" text-decoration="underline" font-size="14.00">format_name</text>
<polygon fill="none" stroke="black" points="63,-1749 63,-1770 177,-1770 177,-1749 63,-1749"/>
<text text-anchor="start" x="81" y="-1756.8" font-family="Times,serif" text-decoration="underline" font-size="14.00">card_name</text>
<polygon fill="none" stroke="black" points="63,-1728 63,-1749 177,-1749 177,-1728 63,-1728"/>
<text text-anchor="start" x="66" y="-1734.8" font-family="Times,serif" font-size="14.00">limitation_type</text>
</g>
<!-- Limitation&#45;&gt;Format -->
<g id="edge5" class="edge">
<title>Limitation:1&#45;&gt;Format:1</title>
<path fill="none" stroke="black" d="M178,-1781C323.9,-1781 360.89,-1817.24 501.68,-1818.94"/>
<polygon fill="black" stroke="black" points="501.98,-1822.44 512,-1819 502.02,-1815.44 501.98,-1822.44"/>
</g>
<!-- Limitation&#45;&gt;Card -->
<g id="edge6" class="edge">
<title>Limitation:2&#45;&gt;Card:1</title>
<path fill="none" stroke="black" d="M178,-1759C574.69,-1759 119.79,-937.23 501.93,-923.18"/>
<polygon fill="black" stroke="black" points="502.06,-926.68 512,-923 501.94,-919.68 502.06,-926.68"/>
</g>
</g>
</svg>
